<?xml version="1.0" encoding="utf-8"?>
<!-- Generator: Adobe Illustrator 24.2.0, SVG Export Plug-In . SVG Version: 6.00 Build 0)  -->
<svg version="1.1" id="Layer_1" xmlns="http://www.w3.org/2000/svg" xmlns:xlink="http://www.w3.org/1999/xlink" x="0px" y="0px"
	 width="100px" height="100px" viewBox="0 0 100 100" style="enable-background:new 0 0 100 100;" xml:space="preserve">
<g>
	<g>
		<path style="fill:#41A5C9;" d="M50,95.1c-18.6,0-35.6-11.7-42.1-29c-2-5.1-3-10.5-3-16C4.9,25.1,25.1,4.9,50,4.9
			c18.5,0,35,11.1,41.8,28.3c2.2,5.3,3.2,10.9,3.2,16.7C95.1,74.8,74.9,95.1,50,95.1z"/>
		<path style="fill:#FFFFFF;" d="M50,6.7c18.2,0,33.8,11.2,40.2,27.2c2,5,3.1,10.4,3.1,16.1c0,23.9-19.4,43.3-43.3,43.3
			c-18.5,0-34.3-11.6-40.4-27.9c-1.8-4.8-2.9-10-2.9-15.4C6.7,26.1,26.1,6.7,50,6.7 M50,3.1C24.1,3.1,3.1,24.1,3.1,50
			c0,5.8,1,11.4,3.1,16.7c3.3,8.8,9.2,16.3,16.9,21.7C31,94,40.3,96.9,50,96.9c25.9,0,46.9-21,46.9-46.9c0-6.1-1.1-11.9-3.4-17.4
			C86.4,14.7,69.3,3.1,50,3.1L50,3.1z"/>
	</g>
	<path style="fill:#364893;" d="M93.3,50c0,23.9-19.4,43.3-43.3,43.3c-18.5,0-34.3-11.6-40.4-27.9l35.3-27.3l20.6,20.6l24.8-24.8
		C92.2,38.9,93.3,44.3,93.3,50z"/>
</g>
</svg>
